<svg width="37" height="35" viewBox="0 0 37 35" fill="none" xmlns="http://www.w3.org/2000/svg">
    <path d="M0.64 34.39V0.489998H20.62V34.39H0.64ZM18.19 26.5L18.7 22.75L16.84 22.57L16.27 25.45C15.11 26.03 13.68 26.32 11.98 26.32C9.66 26.32 7.82 25.59 6.46 24.13C5.12 22.65 4.45 20.7 4.45 18.28C4.45 15.92 5.1 13.98 6.4 12.46C7.72 10.94 9.45 10.18 11.59 10.18C12.69 10.18 13.61 10.31 14.35 10.57C15.09 10.81 15.78 11.14 16.42 11.56L16.96 14.41L18.85 14.23L18.31 10.48C17.51 9.8 16.56 9.25 15.46 8.83C14.38 8.41 13.03 8.2 11.41 8.2C9.51 8.2 7.87 8.67 6.49 9.61C5.11 10.55 4.04 11.8 3.28 13.36C2.52 14.9 2.14 16.57 2.14 18.37C2.14 21.21 3.02 23.58 4.78 25.48C6.54 27.36 8.84 28.3 11.68 28.3C14.46 28.3 16.63 27.7 18.19 26.5ZM19.888 34.39V0.489998H36.478V34.39H19.888ZM34.888 22.54C34.888 21.06 34.528 19.95 33.808 19.21C33.108 18.45 32.258 17.92 31.258 17.62C30.278 17.3 29.348 17.04 28.468 16.84C27.368 16.58 26.368 16.24 25.468 15.82C24.568 15.4 24.118 14.58 24.118 13.36C24.118 12.32 24.488 11.53 25.228 10.99C25.988 10.43 26.978 10.15 28.198 10.15C28.778 10.15 29.388 10.21 30.028 10.33C30.668 10.43 31.298 10.64 31.918 10.96L32.218 13.87L34.018 13.69L33.838 9.82C33.218 9.34 32.358 8.95 31.258 8.65C30.158 8.35 29.068 8.2 27.988 8.2C26.308 8.2 24.848 8.64 23.608 9.52C22.388 10.4 21.778 11.76 21.778 13.6C21.778 14.88 22.078 15.86 22.678 16.54C23.278 17.2 24.028 17.69 24.928 18.01C25.828 18.31 26.738 18.56 27.658 18.76C28.858 19.04 29.968 19.41 30.988 19.87C32.008 20.31 32.518 21.27 32.518 22.75C32.518 24.07 32.048 25.01 31.108 25.57C30.188 26.11 29.088 26.38 27.808 26.38C27.088 26.38 26.398 26.32 25.738 26.2C25.078 26.08 24.418 25.85 23.758 25.51L23.878 23.05L22.078 22.87L21.658 26.71C23.118 27.77 25.208 28.3 27.928 28.3C29.908 28.3 31.558 27.81 32.878 26.83C34.218 25.85 34.888 24.42 34.888 22.54Z" fill="#ED7118"/>
</svg>
